<svg xmlns="http://www.w3.org/2000/svg" width="451" height="315" viewBox="0 0 451 315"><defs><linearGradient id="a" x1="16.295%" x2="16.295%" y1="129.06%" y2="32.132%"><stop offset="0%" stop-color="#dff8ff"/><stop offset="60.162%" stop-color="#b1eeff"/><stop offset="100%" stop-color="#5cddff"/></linearGradient><linearGradient id="b" x1="16.295%" x2="16.295%" y1="129.06%" y2="32.132%"><stop offset="0%" stop-color="#dff8ff"/><stop offset="60.162%" stop-color="#b1eeff"/><stop offset="100%" stop-color="#5cddff"/></linearGradient><linearGradient id="c" x1="50.004%" x2="50.004%" y1="99.974%" y2="0%"><stop offset="0%" stop-color="#fff" stop-opacity="0"/><stop offset="9%" stop-color="#f7faff" stop-opacity=".05"/><stop offset="25%" stop-color="#e2ecff" stop-opacity=".18"/><stop offset="47%" stop-color="#99e9ff" stop-opacity=".343"/><stop offset="73%" stop-color="#5fddff" stop-opacity=".539"/><stop offset="100%" stop-color="#00c9ff" stop-opacity=".731"/></linearGradient><linearGradient id="d" x1="92.403%" x2="40.568%" y1="50.069%" y2="50.069%"><stop offset="0%" stop-color="#effcff"/><stop offset="29%" stop-color="#b2efff"/><stop offset="88%" stop-color="#68ddfd"/><stop offset="100%" stop-color="#4ad9ff"/></linearGradient><linearGradient id="e" x1="16.295%" x2="16.295%" y1="32.132%" y2="129.06%"><stop offset="0%" stop-color="#dff8ff"/><stop offset="60.162%" stop-color="#b1eeff"/><stop offset="100%" stop-color="#5cddff"/></linearGradient><linearGradient id="f" x1=".052%" x2="100.052%" y1="49.922%" y2="49.922%"><stop offset="0%" stop-color="#d2ebff"/><stop offset="29%" stop-color="#c0dfff"/><stop offset="88%" stop-color="#92c0ff"/><stop offset="100%" stop-color="#88b9ff"/></linearGradient><linearGradient id="g" x1="16.295%" x2="16.295%" y1="129.06%" y2="32.132%"><stop offset="0%" stop-color="#dff8ff"/><stop offset="60.162%" stop-color="#b1eeff"/><stop offset="100%" stop-color="#5cddff"/></linearGradient><linearGradient id="h" x1="16.295%" x2="16.295%" y1="129.06%" y2="32.132%"><stop offset="0%" stop-color="#dff8ff"/><stop offset="60.162%" stop-color="#b1eeff"/><stop offset="100%" stop-color="#5cddff"/></linearGradient><linearGradient id="i" x1="16.295%" x2="16.295%" y1="129.06%" y2="32.132%"><stop offset="0%" stop-color="#dff8ff"/><stop offset="60.162%" stop-color="#b1eeff"/><stop offset="100%" stop-color="#5cddff"/></linearGradient><linearGradient id="j" x1="16.295%" x2="16.295%" y1="129.06%" y2="32.132%"><stop offset="0%" stop-color="#dff8ff"/><stop offset="60.162%" stop-color="#b1eeff"/><stop offset="100%" stop-color="#5cddff"/></linearGradient><linearGradient id="k" x1="16.295%" x2="16.295%" y1="129.06%" y2="32.132%"><stop offset="0%" stop-color="#dff8ff"/><stop offset="60.162%" stop-color="#b1eeff"/><stop offset="100%" stop-color="#5cddff"/></linearGradient><linearGradient id="l" x1="16.295%" x2="16.295%" y1="129.06%" y2="32.132%"><stop offset="0%" stop-color="#dff8ff"/><stop offset="60.162%" stop-color="#b1eeff"/><stop offset="100%" stop-color="#5cddff"/></linearGradient><linearGradient id="m" x1="51.913%" x2="51.913%" y1="138.279%" y2="87.813%"><stop offset="0%" stop-color="#d2ebff"/><stop offset="29%" stop-color="#cbf4ff"/><stop offset="88%" stop-color="#98e9ff"/><stop offset="100%" stop-color="#52daff"/></linearGradient></defs><g fill="none" fill-rule="evenodd"><path fill="url(#a)" fill-rule="nonzero" d="M408.632 18.485h-5.033C403.6 8.278 395.436 0 385.342 0s-18.258 8.278-18.258 18.485h-3.687c-4.623 0-8.397 4.154-8.397 9.258S358.745 37 363.397 37h45.206c4.623 0 8.397-4.154 8.397-9.257 0-5.104-3.745-9.258-8.397-9.258z"/><path fill="url(#b)" fill-rule="nonzero" d="M288.882 58.485h4.147c0-8.012 6.732-14.485 14.997-14.485s15.026 6.503 15.026 14.485h3.036c3.817 0 6.912 3.252 6.912 7.258S329.905 73 326.088 73h-37.176c-3.817 0-6.912-3.251-6.912-7.257s3.095-7.258 6.912-7.258z"/><path fill="url(#c)" d="M232.65 202c59.961 0 113.968 4.91 151.72 12.782 36.917.24 66.63 11.375 66.63 25.054 0 10.836-18.667 20.086-44.807 23.558-6.223 1.856-13.249 3.592-20.96 5.239.208 1.047.298 2.095.298 3.143 0 23.857-51.626 43.224-115.279 43.224-57.282 0-104.798-15.655-113.76-36.19C80.067 272.973 26 258.605 26 241.812c0-21.971 92.503-39.782 206.65-39.782z"/><path fill="url(#d)" fill-rule="nonzero" d="M57.04 42.434c.12.447.27.953.42 1.46l.36 1.37c.12.446.18.833.18 1.101 0 1.608-.42 3.008-1.289 4.228a7.84 7.84 0 0 1-3.357 2.71c-.51.06-1.08.09-1.649.09-.45.06-.989.089-1.558.089h-1.649l-13.458.179v14.293c0 2.115.03 4.229.12 6.373s.18 4.08.3 5.777c.12 2.055.27 4.02.42 5.896H23.44l.27-3.335q.09-1.965.18-5.36t.09-9.023V55.179c-.99.864-2.069 1.28-3.268 1.28-.989 0-1.828-.237-2.548-.684a5.1 5.1 0 0 1-1.768-1.876l-9.772-.506c-1.888-.447-3.477-1.4-4.736-2.86Q0 48.347 0 45.354c0-.358 0-.656.09-.953.06-.298.15-.566.27-.864l2.158-4.973c.12-1.25.48-2.412 1.079-3.514a11 11 0 0 1 2.278-2.829L19.423 7.296h.09c1.08-1.995 2.398-3.723 3.897-5.152S26.827 0 29.195 0c2.068 0 3.926.536 5.575 1.638 1.649 1.072 2.878 2.501 3.657 4.288l10.88 21.143c1.949.684 3.567 1.876 4.826 3.603q1.89 2.59 1.889 5.896c0 .923-.15 1.876-.42 2.918l1.469 2.918z" transform="translate(45 157)"/><g fill-rule="nonzero" transform="translate(144 105)"><path fill="#00c9ff" d="M36.559 136.74v7.833l18.428-.209v15.398L33.893 160v-6.641L0 153.389V136.77l36.559-.06zm29.656-.446v15.635l-9.717.06v-15.636zm-22.664-26.358 1.155 20.401-32.026-1.519z"/><path fill="#00bef1" d="M54.987 144.364v14.713l1.51-5.808.03-16.916zm11.228-8.07 1.57-8.101.03 17.988-1.6 5.778z"/><path fill="url(#e)" d="m54.987 144.364 1.54-8.01 9.718-.06 1.57-8.19h-9.718l4.178-21.712-20.68-.238L1.69 127.597 0 136.77l35.433-.238-1.54 8.13 21.094-.268zm-17.984-16.2H18.872l20.383-11.765-2.222 11.764z"/><g transform="translate(82.332)"><path fill="#5f99ff" d="M13.806 70.237c2.163.864 3.91 1.46 5.214 1.787.474.12 1.748.387 3.852.834 2.103.417 3.733.685 4.888.774 1.155.09 2.4.09 3.674 0a26.5 26.5 0 0 0 3.792-.625c1.244-.328 2.281-.685 3.14-1.072.86-.388 1.837-1.043 2.904-1.966 1.066-.893 2.133-2.263 3.229-4.11 1.096-1.817 1.866-3.365 2.34-4.586s1.037-3.127 1.748-5.689l7.259-27.22c.326-1.192.563-2.443.77-3.753s.267-2.502.267-3.544-.119-2.204-.356-3.455c-.207-1.28-.71-2.68-1.51-4.229q-1.2-2.323-2.49-3.93c-.858-1.073-1.866-2.026-2.962-2.92-1.096-.863-2.4-1.638-3.94-2.293-1.511-.655-3.407-1.28-5.659-1.846L35.79 1.38C32.915.726 30.723.28 29.24.101c-1.481-.18-3.08-.12-4.829.178a17.7 17.7 0 0 0-4.74 1.49c-1.422.714-2.607 1.429-3.496 2.203-.889.775-1.807 1.608-2.666 2.502-.86.893-1.66 1.995-2.43 3.276s-1.54 3.157-2.4 5.57L1.305 43.015a38 38 0 0 0-.978 4.795C.119 49.36 0 51.147 0 53.231s.356 3.932 1.067 5.57c.71 1.638 1.422 3.008 2.192 4.08a17 17 0 0 0 2.844 3.067c1.126.983 2.163 1.728 3.081 2.264s2.46 1.25 4.622 2.114zM24.53 57.103l-.593-.149c-2.133-.566-3.674-1.28-4.651-2.144-.978-.864-1.748-1.966-2.281-3.306s-.711-2.83-.504-4.437c.207-1.609.592-3.425 1.096-5.39l4.74-17.96c.741-2.918 1.511-4.824 2.282-5.688.77-.863 1.451-1.489 2.014-1.876s1.422-.655 2.578-.864q1.733-.312 2.844 0l2.192.656c1.54.476 2.815 1.131 3.822 1.906s1.718 1.518 2.103 2.263c.386.715.534 2.055.415 3.961-.089 1.936-.355 3.723-.8 5.39L35.196 46.71c-.148.536-.592 1.906-1.392 4.05s-1.482 3.634-2.133 4.438c-.652.775-1.66 1.4-3.022 1.847a7.03 7.03 0 0 1-4.148.089z"/><path fill="#00c9ff" d="M13.806 70.237c2.163.864 3.91 1.46 5.214 1.787.474.12 1.748.387 3.852.834 2.103.417 3.733.685 4.888.774 1.155.09 2.4.09 3.674 0a26.5 26.5 0 0 0 3.792-.625c1.244-.328 2.281-.685 3.14-1.072.86-.388 1.837-1.043 2.904-1.966 1.066-.893 2.133-2.263 3.229-4.11 1.096-1.817 1.866-3.365 2.34-4.586s1.037-3.127 1.748-5.689l7.259-27.22c.326-1.192.563-2.443.77-3.753s.267-2.502.267-3.544-.119-2.204-.356-3.455c-.207-1.28-.71-2.68-1.51-4.229q-1.2-2.323-2.49-3.93c-.858-1.073-1.866-2.026-2.962-2.92-1.096-.863-2.4-1.638-3.94-2.293-1.511-.655-3.407-1.28-5.659-1.846L35.79 1.38C32.915.726 30.723.28 29.24.101c-1.481-.18-3.08-.12-4.829.178a17.7 17.7 0 0 0-4.74 1.49c-1.422.714-2.607 1.429-3.496 2.203-.889.775-1.807 1.608-2.666 2.502-.86.893-1.66 1.995-2.43 3.276s-1.54 3.157-2.4 5.57L1.305 43.015a38 38 0 0 0-.978 4.795C.119 49.36 0 51.147 0 53.231s.356 3.932 1.067 5.57c.71 1.638 1.422 3.008 2.192 4.08a17 17 0 0 0 2.844 3.067c1.126.983 2.163 1.728 3.081 2.264s2.46 1.25 4.622 2.114zM24.53 57.103l-.593-.149c-2.133-.566-3.674-1.28-4.651-2.144-.978-.864-1.748-1.966-2.281-3.306s-.711-2.83-.504-4.437c.207-1.609.592-3.425 1.096-5.39l4.74-17.96c.741-2.918 1.511-4.824 2.282-5.688.77-.863 1.451-1.489 2.014-1.876s1.422-.655 2.578-.864q1.733-.312 2.844 0l2.192.656c1.54.476 2.815 1.131 3.822 1.906s1.718 1.518 2.103 2.263c.386.715.534 2.055.415 3.961-.089 1.936-.355 3.723-.8 5.39L35.196 46.71c-.148.536-.592 1.906-1.392 4.05s-1.482 3.634-2.133 4.438c-.652.775-1.66 1.4-3.022 1.847a7.03 7.03 0 0 1-4.148.089z"/></g><g transform="translate(77.473 3.931)"><path fill="url(#f)" d="M13.806 70.237c2.163.864 3.91 1.46 5.214 1.787.474.12 1.748.387 3.852.834 2.103.417 3.733.685 4.888.774 1.155.09 2.4.09 3.674 0a26.5 26.5 0 0 0 3.792-.625c1.244-.328 2.281-.685 3.14-1.072.86-.388 1.837-1.043 2.904-1.966s2.133-2.263 3.229-4.11c1.096-1.817 1.866-3.365 2.34-4.586s1.037-3.127 1.748-5.689l7.259-27.22c.326-1.192.563-2.443.77-3.753.178-1.34.267-2.502.267-3.544s-.119-2.204-.356-3.455c-.207-1.28-.74-2.68-1.51-4.229a22 22 0 0 0-2.49-3.93c-.858-1.073-1.866-2.026-2.962-2.92-1.096-.863-2.4-1.638-3.94-2.293-1.511-.655-3.407-1.28-5.659-1.846L35.79 1.38C32.915.726 30.723.28 29.24.101c-1.481-.18-3.08-.12-4.829.178a17.7 17.7 0 0 0-4.74 1.49c-1.422.684-2.607 1.429-3.496 2.203a35 35 0 0 0-2.666 2.502c-.86.893-1.689 1.995-2.43 3.276-.74 1.31-1.54 3.157-2.4 5.57L1.305 43.015a38 38 0 0 0-.978 4.795C.119 49.36 0 51.147 0 53.231s.356 3.932 1.067 5.57c.71 1.638 1.422 2.978 2.192 4.08a17 17 0 0 0 2.844 3.067c1.126.983 2.163 1.728 3.081 2.264s2.46 1.25 4.622 2.114zM24.53 57.073l-.593-.148c-2.133-.566-3.674-1.281-4.651-2.145-.978-.863-1.748-1.965-2.281-3.306s-.711-2.829-.504-4.437c.207-1.638.592-3.425 1.096-5.39l4.74-17.96C23.08 20.77 23.85 18.864 24.62 18s1.451-1.489 2.014-1.876c.563-.357 1.422-.655 2.578-.863q1.733-.314 2.844 0l2.192.655c1.54.476 2.815 1.131 3.822 1.906s1.718 1.519 2.103 2.263c.386.715.534 2.055.415 3.961a27.4 27.4 0 0 1-.8 5.39L35.196 46.68c-.148.536-.592 1.906-1.392 4.05-.77 2.174-1.482 3.633-2.133 4.437-.652.805-1.66 1.4-3.022 1.847q-2.044.67-4.178.09z"/><path fill="url(#g)" d="M13.806 70.237c2.163.864 3.91 1.46 5.214 1.787.474.12 1.748.387 3.852.834 2.103.417 3.733.685 4.888.774 1.155.09 2.4.09 3.674 0a26.5 26.5 0 0 0 3.792-.625c1.244-.328 2.281-.685 3.14-1.072.86-.388 1.837-1.043 2.904-1.966s2.133-2.263 3.229-4.11c1.096-1.817 1.866-3.365 2.34-4.586s1.037-3.127 1.748-5.689l7.259-27.22c.326-1.192.563-2.443.77-3.753.178-1.34.267-2.502.267-3.544s-.119-2.204-.356-3.455c-.207-1.28-.74-2.68-1.51-4.229a22 22 0 0 0-2.49-3.93c-.858-1.073-1.866-2.026-2.962-2.92-1.096-.863-2.4-1.638-3.94-2.293-1.511-.655-3.407-1.28-5.659-1.846L35.79 1.38C32.915.726 30.723.28 29.24.101c-1.481-.18-3.08-.12-4.829.178a17.7 17.7 0 0 0-4.74 1.49c-1.422.684-2.607 1.429-3.496 2.203a35 35 0 0 0-2.666 2.502c-.86.893-1.689 1.995-2.43 3.276-.74 1.31-1.54 3.157-2.4 5.57L1.305 43.015a38 38 0 0 0-.978 4.795C.119 49.36 0 51.147 0 53.231s.356 3.932 1.067 5.57c.71 1.638 1.422 2.978 2.192 4.08a17 17 0 0 0 2.844 3.067c1.126.983 2.163 1.728 3.081 2.264s2.46 1.25 4.622 2.114zM24.53 57.073l-.593-.148c-2.133-.566-3.674-1.281-4.651-2.145-.978-.863-1.748-1.965-2.281-3.306s-.711-2.829-.504-4.437c.207-1.638.592-3.425 1.096-5.39l4.74-17.96C23.08 20.77 23.85 18.864 24.62 18s1.451-1.489 2.014-1.876c.563-.357 1.422-.655 2.578-.863q1.733-.314 2.844 0l2.192.655c1.54.476 2.815 1.131 3.822 1.906s1.718 1.519 2.103 2.263c.386.715.534 2.055.415 3.961a27.4 27.4 0 0 1-.8 5.39L35.196 46.68c-.148.536-.592 1.906-1.392 4.05-.77 2.174-1.482 3.633-2.133 4.437-.652.805-1.66 1.4-3.022 1.847q-2.044.67-4.178.09z"/></g><path fill="#00c9ff" d="m173.73 110.413 3.792 6.85 15.998-9.233 7.466 13.462-18.28 10.543-3.229-5.808-29.567 16.648-8.059-14.503 31.908-17.989zm25.656-14.95 7.584 13.64-8.443 4.824-7.585-13.64zm-32.56-11.854 10.903 17.244-28.678 14.385z"/><path fill="#00bef1" d="m193.52 108.03 7.11 12.836-1.481-5.807-8.207-14.772zm5.866-12.568-2.548-7.832 8.74 15.695 1.422 5.837z"/><path fill="url(#h)" d="m193.52 108.03-2.548-7.743 8.444-4.825-2.607-7.922-8.474 4.766-6.932-21.027-18.161 9.918-24.442 38.3 2.992 8.845 30.812-17.601 2.607 7.862 18.28-10.573zm-23.583-5.33-15.82 8.934 12.058-20.281z"/></g><g transform="translate(311 216)"><path fill="url(#i)" fill-rule="nonzero" d="M39.871 59.253c-1.508-7.116-5.973-12.118-13.339-14.947-8.409-2.77-13.02-6.104-7.77-8.486 4.436-.357 13.918-3.93 21.08 17.359q.74 3.083 0 6.074z"/><path fill="url(#j)" fill-rule="nonzero" d="M39.842 60.176c-4.407-16.942-9.395-29.299-14.962-37.1-4.118-5.33-3.828-12.952 0-14.68 3.914-.446 11.106-1.13 16.528 28.05.348 1.994 2.262 13.755 0 21.348-.319 1.042-.84 1.846-1.566 2.382"/><path fill="url(#k)" fill-rule="nonzero" d="M40.886 56.127c1.972-7.533 1.74-17.39-.754-29.537C36.333 14.828 29.838.328 41.67 0c4.813.685 10.613 5.866 8.41 31.71-1.335 10.422-3.655 16.586-6.09 24.417-.841.476-1.885.476-3.103 0"/><path fill="url(#l)" fill-rule="nonzero" d="M43.032 59.253q-1.174-32.157 11.396-46.182c2.261-3.126 10.903-6.044 10.874 3.752-.9 4.198-2.842 13.19-13.948 26.887-3.654 4.943-6.06 12.179-6.09 13.876 0 1.131-.753 1.697-2.232 1.697z"/><path fill="url(#m)" d="M0 61.933c8.322-1.578 12.904-2.918 13.774-4.02 1.276-1.667 12.613-8.754 19.66-2.769 1.537-2.025 6.466-3.573 9.279 0 1.276-5.657 9.337-9.26 12.846-8.694 3.943-.328 15.571-.18 16.441 15.483-3.19.09-27.17.09-72 0"/></g><path fill="#00c9ff" d="M117.272 95c-4.234-12.15-18.01-17.894-29.728-16.18 8.617-5.533 22.99-6.917 29.728 1.474v-.06c6.739-8.45 21.051-7.007 29.728-1.474-11.718-1.774-25.494 3.97-29.728 16.18zM98.07 58.64c-2.505-7.187-10.645-10.555-17.563-9.563 5.099-3.247 13.597-4.09 17.563.873 3.965-5.053 12.433-4.18 17.562-.903-6.918-1.052-15.058 2.346-17.562 9.564v.06zm-47.977-6.134c-1.73-4.962-7.365-7.308-12.165-6.616 3.518-2.256 9.422-2.827 12.165.601 2.744-3.488 8.618-2.887 12.166-.631-4.8-.722-10.436 1.624-12.166 6.616zm24.808-25.021c-1.729-4.963-7.394-7.308-12.165-6.617 3.518-2.255 9.422-2.827 12.165.602 2.744-3.489 8.618-2.887 12.166-.632-4.8-.721-10.436 1.624-12.166 6.616zM0 50.46c2.445-1.504 6.53-1.895 8.438.39 1.909-2.315 5.964-1.924 8.439-.42-3.31-.481-7.216 1.082-8.439 4.42C7.246 51.575 3.34 49.98 0 50.462"/></g></svg>