<?xml version="1.0" encoding="UTF-8"?>
<svg width="250px" height="57px" viewBox="0 0 250 57" version="1.1" xmlns="http://www.w3.org/2000/svg" xmlns:xlink="http://www.w3.org/1999/xlink">
    <title>编组</title>
    <g id="登录" stroke="none" stroke-width="1" fill="none" fill-rule="evenodd">
        <g transform="translate(-50, -140)" fill="#FFFFFF" fill-rule="nonzero" id="编组">
            <g transform="translate(50, 140.8)">
                <g transform="translate(69.2679, 12.8535)">
                    <g>
                        <polygon id="路径" points="24.1251051 0 13.9741046 14.2471835 13.2866992 14.2471835 6.41264503 0 0 0 10.4240794 19.6145956 8.6443585 34.1819405 14.0211872 34.1819405 15.7444089 19.7558433 30.7166639 0"></polygon>
                        <path d="M34.8034303,12.1473012 L32.9389608,12.1473012 C26.8276442,12.1473012 23.3906171,15.2735833 22.6372961,21.5167311 L22.2512191,24.784261 C22.175887,25.4810829 22.138221,26.1308223 22.138221,26.7240626 C22.138221,31.6488986 24.821927,34.1066084 30.1799227,34.1066084 L32.0443921,34.1066084 C38.1557088,34.1066084 41.5927358,30.9803262 42.3460568,24.7371784 L42.7321338,21.4696486 C42.8074659,20.7728266 42.845132,20.1230873 42.845132,19.529847 C42.845132,14.6050109 40.1614259,12.1473012 34.8034303,12.1473012 L34.8034303,12.1473012 Z M38.2687069,21.3566504 L37.8449638,24.8501766 C37.4306373,28.2495376 35.6697495,29.9445098 32.5623003,29.9445098 L30.6978308,29.9445098 C28.0047083,29.9445098 26.658147,28.6261981 26.658147,25.9801581 C26.658147,25.7729948 26.6863965,25.4151673 26.7334791,24.8878426 L27.1572221,21.3943165 C27.5715487,18.004372 29.3324365,16.2999832 32.4398857,16.2999832 L34.3043551,16.2999832 C36.9974777,16.2999832 38.344039,17.6182949 38.344039,20.264335 C38.344039,20.4714982 38.3157895,20.8387422 38.2687069,21.3566504 Z" id="形状"></path>
                        <polygon id="路径" points="81.1326719 33.9465277 85.6055154 33.9465277 88.2892215 12.2979654 83.816378 12.2979654"></polygon>
                        <path d="M120.34303,0 L108.553556,29.1723558 L104.730452,29.1723558 L100.182277,0 L94.4947032,0 L99.6361191,31.2722381 C99.965697,33.2120397 100.907348,34.1819405 102.461073,34.1819405 L110.107281,34.1819405 C110.832352,34.1819405 111.453842,33.9936102 111.97175,33.6169497 C112.489659,33.2402892 112.932235,32.5905499 113.290062,31.6865647 L126.218934,0.00941651253 L120.34303,0.00941651253 L120.34303,0 Z" id="路径"></path>
                        <path d="M134.693795,12.1473012 L133.912225,12.1473012 C130.804776,12.1473012 128.403565,12.9288717 126.727426,14.5014293 C125.04187,16.0739869 124.01547,18.409282 123.657643,21.5167311 L123.271565,24.784261 C123.196233,25.4057508 123.158567,26.0178241 123.158567,26.6110644 C123.158567,29.0687742 123.893055,30.9332437 125.352615,32.2044728 C126.812174,33.475702 129.11922,34.1066084 132.254918,34.1066084 L134.157054,34.1066084 C135.965024,34.1066084 138.017824,33.9936102 140.29662,33.7581974 L140.720363,29.7185135 C137.970742,29.9539263 135.927358,30.0669245 134.580797,30.0669245 L132.678662,30.0669245 C130.861275,30.0669245 129.571212,29.7467631 128.808475,29.1158567 C128.045737,28.4849504 127.65966,27.5056331 127.65966,26.1779048 C127.65966,25.9707416 127.68791,25.5846645 127.734992,25.0102573 L127.734992,24.9725912 L142.236422,24.9725912 L142.660165,21.4790651 C142.735497,20.8010762 142.773163,20.1795863 142.773163,19.6145956 C142.773163,17.1568858 142.095174,15.2924163 140.72978,14.0400202 C139.364385,12.787624 137.349252,12.1567177 134.684379,12.1567177 L134.693795,12.1473012 Z M138.234404,21.1589036 L138.234404,21.1965697 L128.205818,21.1965697 C128.620145,17.8066252 130.352783,16.1022364 133.413149,16.1022364 L134.185304,16.1022364 C135.607197,16.1022364 136.65243,16.4223978 137.311586,17.0721372 C137.970742,17.7218766 138.300319,18.6635278 138.300319,19.9065075 C138.300319,20.1701698 138.27207,20.5844964 138.224987,21.1494871 L138.234404,21.1589036 Z" id="形状"></path>
                        <path d="M173.282664,16.4600639 L179.893055,16.4600639 L180.401547,12.2979654 L173.791155,12.2979654 L174.450311,6.77988902 L169.977468,6.77988902 L169.318312,12.2979654 L157.171011,12.2979654 C157.171011,12.2979654 156.803767,12.2979654 156.803767,12.2979654 L155.212376,12.2979654 C153.168993,12.2979654 151.492854,12.4957121 150.202791,12.8817891 C148.903313,13.2678662 147.895746,13.908189 147.170674,14.8027577 C146.445603,15.6973264 145.99361,16.9308895 145.80528,18.5128636 C145.748781,19.0872709 145.729948,19.4827644 145.729948,19.7181772 C145.729948,20.8575752 145.965361,21.770977 146.42677,22.4583824 C146.888179,23.1457878 147.603834,23.6731125 148.564318,24.03094 C149.779048,24.398184 151.059694,24.6241803 152.406255,24.7277619 L153.300824,24.84076 C154.468471,24.9725912 155.259459,25.0855894 155.673785,25.189171 C156.088112,25.2927526 156.38944,25.4904994 156.568354,25.7729948 C156.775517,25.9801581 156.879099,26.4039011 156.879099,27.0536405 C156.879099,27.2890533 156.860266,27.467967 156.841433,27.5997982 C156.690768,28.3813688 156.276442,28.974609 155.617286,29.3889356 C154.95813,29.8032621 153.799899,30.0104254 152.142593,30.0104254 L150.824281,30.0104254 C149.298806,29.9539263 147.264839,29.8126787 144.722381,29.5866824 L144.138557,33.7864469 C145.871196,33.9465277 147.933412,34.0406928 150.315789,34.0971919 L151.634101,34.0971919 C154.74155,34.0971919 157.048596,33.6075332 158.555238,32.6376324 C160.06188,31.6677316 160.965865,29.9727594 161.27661,27.5621322 C161.333109,27.2513873 161.351942,26.8088112 161.351942,26.2438204 C161.351942,25.0479233 161.116529,24.0780225 160.636287,23.3247015 C160.156045,22.5713805 159.459223,22.0440558 158.555238,21.7333109 C157.519422,21.3943165 156.182277,21.1494871 154.55322,20.9988229 C153.178409,20.8387422 152.246175,20.706911 151.737683,20.5939129 C151.229191,20.4809147 150.852531,20.264335 150.588868,19.95359 C150.353456,19.6710947 150.240457,19.3226837 150.240457,18.9083572 C150.240457,18.7011939 150.249874,18.5316967 150.278123,18.3998655 C150.353456,17.8819573 150.532369,17.4864638 150.805448,17.2133849 C151.078527,16.940306 151.511687,16.7425593 152.104927,16.6295611 C152.698167,16.516563 153.573903,16.4506474 154.703884,16.4506474 L168.772154,16.4506474 L167.491508,27.063057 C167.444426,27.6374643 167.416176,28.0235413 167.416176,28.2307046 C167.416176,30.1234236 168,31.545317 169.167648,32.5058012 C170.335295,33.4662855 171.983185,33.9465277 174.1019,33.9465277 C175.655625,33.9465277 176.955103,33.9182781 177.99092,33.8711956 L178.489995,29.6337649 C176.625525,29.690264 175.326047,29.709097 174.600975,29.709097 C172.896587,29.709097 172.039684,28.8427779 172.039684,27.1101396 C172.039684,26.7993947 172.0491,26.5545653 172.07735,26.3756516 L173.282664,16.4694804 L173.282664,16.4600639 Z" id="路径"></path>
                        <path d="M73.8631243,12.2979654 L62.4314781,12.2979654 L60.3315958,29.671431 L55.0112662,29.709097 C53.5893728,29.709097 52.5535564,29.4548512 51.9226501,28.936943 C51.2917437,28.4190348 50.9715823,27.4868001 50.9715823,26.1402388 C50.9715823,25.5469985 50.9998318,25.0761729 51.0469144,24.7371784 L52.5629729,12.2979654 L48.0901295,12.2979654 L46.574071,24.6147637 C46.4987389,25.3115857 46.4610728,25.961325 46.4610728,26.5545653 C46.4610728,31.4794014 49.1447789,33.9371111 54.5027745,33.9371111 L64.2582815,33.9371111 L66.4334959,16.1022364 L73.3922986,16.1022364 L71.1323356,34.6810156 C71.0005045,35.7921641 70.6897595,36.6302337 70.1812679,37.185808 C69.6727762,37.7413822 68.9477047,38.0238776 67.9872204,38.0238776 C66.8478224,38.0238776 65.8214226,37.9673785 64.9174374,37.8637969 L64.4560282,42.0635615 C65.3411804,42.1953926 66.4240794,42.2613082 67.7235581,42.2613082 C70.1624348,42.2613082 71.9986548,41.686901 73.2416344,40.5475029 C74.4846141,39.4081049 75.2473516,37.6848831 75.5392635,35.3778376 L78.3359677,12.2885488 L73.8631243,12.2885488 L73.8631243,12.2979654 Z" id="路径"></path>
                    </g>
                    <circle id="椭圆形" cx="76.4714982" cy="6.77988902" r="2.56129141"></circle>
                    <circle id="椭圆形" cx="86.5189171" cy="6.77988902" r="2.56129141"></circle>
                </g>
                <g id="形状">
                    <g transform="translate(0, 4.5576)">
                        <path d="M26.2814865,43.8621154 C16.1022364,43.8621154 7.82512191,35.5850008 7.82512191,25.4057508 C7.82512191,15.2265008 16.1022364,6.94938625 26.2814865,6.94938625 C36.4607365,6.94938625 44.737851,15.2265008 44.737851,25.4057508 C44.737851,35.5850008 36.4607365,43.8621154 26.2814865,43.8621154 Z M26.2814865,7.7403733 C16.5448125,7.7403733 8.62552548,15.6596603 8.62552548,25.3963343 C8.62552548,35.1330082 16.5448125,43.0522953 26.2814865,43.0522953 C36.0181604,43.0522953 43.9374475,35.1330082 43.9374475,25.3963343 C43.9374475,15.6596603 36.0181604,7.7403733 26.2814865,7.7403733 Z"></path>
                        <path d="M25.7259122,0 C11.5446444,0 0,11.5352278 0,25.7164957 C0,39.8977636 11.5352278,51.4424079 25.7259122,51.4424079 C39.9165966,51.4424079 51.4518244,39.9071801 51.4518244,25.7164957 C51.4518244,11.5258113 39.9165966,0 25.7259122,0 Z M49.8980999,25.7259122 C49.8980999,39.059694 39.0502775,49.8980999 25.7259122,49.8980999 C12.401547,49.8980999 1.55372457,39.0502775 1.55372457,25.7259122 C1.55372457,12.401547 12.401547,1.55372457 25.7259122,1.55372457 C39.0502775,1.55372457 49.8980999,12.401547 49.8980999,25.7259122 L49.8980999,25.7259122 Z"></path>
                        <path d="M32.2233059,5.58399193 C21.5732302,5.58399193 12.9194552,14.2471835 12.9194552,24.8878426 C12.9194552,35.5285018 21.5826467,44.1916933 32.2233059,44.1916933 C42.863965,44.1916933 51.5271565,35.5285018 51.5271565,24.8878426 C51.5271565,14.2471835 42.863965,5.58399193 32.2233059,5.58399193 Z M32.2233059,43.231209 C22.1099714,43.231209 13.8799395,35.0011771 13.8799395,24.8878426 C13.8799395,14.7745082 22.1099714,6.55389272 32.2233059,6.55389272 C42.3366403,6.55389272 50.5666723,14.7839247 50.5666723,24.8878426 C50.5666723,34.9917606 42.3366403,43.231209 32.2233059,43.231209 Z"></path>
                    </g>
                    <path d="M29.7844291,0 C15.395998,0 3.70068942,11.7047251 3.70068942,26.0837397 C3.70068942,40.4627543 15.4054145,52.1674794 29.7844291,52.1674794 C44.1634438,52.1674794 55.8681688,40.4627543 55.8681688,26.0837397 C55.8681688,11.7047251 44.1634438,0 29.7844291,0 Z M55.1148478,26.0837397 C55.1148478,40.0484278 43.7491172,51.4141584 29.7844291,51.4141584 C15.819741,51.4141584 4.45401043,40.0484278 4.45401043,26.0837397 C4.45401043,12.1190516 15.819741,0.753321002 29.7844291,0.753321002 C43.7491172,0.753321002 55.1148478,12.1190516 55.1148478,26.0837397 Z"></path>
                    <path d="M32.2233059,1.86446948 C17.4393812,1.86446948 5.40507819,13.889356 5.40507819,28.6826972 C5.40507819,43.4760383 17.4393812,55.5009248 32.2233059,55.5009248 C47.0072305,55.5009248 59.0415335,43.4760383 59.0415335,28.6826972 C59.0415335,13.889356 47.016647,1.86446948 32.2233059,1.86446948 Z M32.2233059,54.0601984 C18.2209517,54.0601984 6.83638809,42.6756348 6.83638809,28.6732806 C6.83638809,14.6709265 18.2209517,3.28636287 32.2233059,3.28636287 C46.22566,3.28636287 57.6102236,14.6709265 57.6102236,28.6732806 C57.6102236,42.6756348 46.22566,54.0601984 32.2233059,54.0601984 Z"></path>
                    <path d="M29.6431814,45.067429 C19.1343535,45.067429 10.5747436,36.5172356 10.5747436,25.9989911 C10.5747436,15.4807466 19.1249369,6.93055322 29.6431814,6.93055322 C40.1614259,6.93055322 48.7116193,15.4807466 48.7116193,25.9989911 C48.7116193,36.5172356 40.1614259,45.067429 29.6431814,45.067429 Z M29.6431814,7.33546326 C19.3509332,7.33546326 10.9702371,15.7161594 10.9702371,26.0084076 C10.9702371,36.3006558 19.3509332,44.6813519 29.6431814,44.6813519 C39.9354296,44.6813519 48.3161258,36.3006558 48.3161258,26.0084076 C48.3161258,15.7161594 39.9354296,7.33546326 29.6431814,7.33546326 L29.6431814,7.33546326 Z"></path>
                </g>
            </g>
        </g>
    </g>
</svg>
