<?xml version="1.0" encoding="UTF-8"?>
<svg width="31px" height="29px" viewBox="0 0 31 29" version="1.1" xmlns="http://www.w3.org/2000/svg" xmlns:xlink="http://www.w3.org/1999/xlink">
    <title>编组</title>
    <g id="首页" stroke="none" stroke-width="1" fill="none" fill-rule="evenodd">
        <g id="展开icon" transform="translate(-172, -23)" fill-rule="nonzero">
            <g id="形状" transform="translate(172, 23)">
                <g transform="translate(0, 2.3618)">
                    <path d="M13.8028101,22.7069186 C8.45591085,22.7069186 4.10780039,18.4202196 4.10780039,13.1488384 C4.10780039,7.87745724 8.45591085,3.59075823 13.8028101,3.59075823 C19.1497093,3.59075823 23.4978198,7.87745724 23.4978198,13.1488384 C23.4978198,18.4202196 19.1497093,22.7069186 13.8028101,22.7069186 L13.8028101,22.7069186 Z M13.8028101,4.01276487 C8.68871124,4.01276487 4.52834302,8.11437324 4.52834302,13.156242 C4.52834302,18.1981108 8.68871124,22.2997192 13.8028101,22.2997192 C18.9169089,22.2997192 23.0772771,18.1981108 23.0772771,13.156242 C23.0772771,8.11437324 18.9169089,4.01276487 13.8028101,4.01276487 Z" fill="#404040"></path>
                    <path d="M13.5099322,0 C6.06031977,0 0,5.97472556 0,13.3191218 C0,20.663518 6.06031977,26.6382436 13.5099322,26.6382436 C20.9595446,26.6382436 27.0198643,20.663518 27.0198643,13.3191218 C27.0198643,5.97472556 20.9595446,0 13.5099322,0 Z M26.2013081,13.3191218 C26.2013081,20.2193005 20.5089632,25.8312484 13.5099322,25.8312484 C6.51090116,25.8312484 0.818556202,20.2193005 0.818556202,13.3191218 C0.818556202,6.41894307 6.51090116,0.806995149 13.5099322,0.806995149 C20.5089632,0.806995149 26.2013081,6.41894307 26.2013081,13.3191218 Z" fill="#404040"></path>
                    <path d="M16.9193314,2.89481746 C11.3321221,2.89481746 6.78125,7.38141435 6.78125,12.8897115 C6.78125,18.3980087 11.3321221,22.8846056 16.9193314,22.8846056 C22.5065407,22.8846056 27.0574128,18.3980087 27.0574128,12.8897115 C27.0574128,7.38141435 22.5065407,2.89481746 16.9193314,2.89481746 Z M16.9193314,22.3811591 C11.6099806,22.3811591 7.29190891,18.1240745 7.29190891,12.8823079 C7.29190891,7.64054123 11.6099806,3.39086035 16.9193314,3.39086035 C22.2286822,3.39086035 26.5467539,7.64794486 26.5467539,12.8823079 C26.5467539,18.1166709 22.2286822,22.3811591 16.9193314,22.3811591 L16.9193314,22.3811591 Z" fill="#00C9FF"></path>
                </g>
                <path d="M15.6426841,0 C8.08793605,0 1.94500969,6.05616543 1.94500969,13.5042124 C1.94500969,20.9522594 8.08793605,27.0084248 15.6426841,27.0084248 C23.1974322,27.0084248 29.3403585,20.9522594 29.3403585,13.5042124 C29.3403585,6.05616543 23.1974322,0 15.6426841,0 Z M28.942345,13.5042124 C28.942345,20.7375543 22.9721415,26.6160327 15.6426841,26.6160327 C8.31322674,26.6160327 2.34302326,20.7301506 2.34302326,13.5042124 C2.34302326,6.27827419 8.31322674,0.392392137 15.6426841,0.392392137 C22.9721415,0.392392137 28.942345,6.27827419 28.942345,13.5042124 Z" fill="#404040"></path>
                <path d="M16.9193314,0.969874904 C9.15431202,0.969874904 2.83866279,7.19632372 2.83866279,14.8516722 C2.83866279,22.5070207 9.15431202,28.7334695 16.9193314,28.7334695 C24.6843508,28.7334695 31,22.5070207 31,14.8516722 C31,7.19632372 24.6843508,0.969874904 16.9193314,0.969874904 Z M16.9193314,27.993107 C9.56734496,27.993107 3.58963178,22.0998213 3.58963178,14.8516722 C3.58963178,7.6035231 9.56734496,1.71023743 16.9193314,1.71023743 C24.2713178,1.71023743 30.249031,7.6035231 30.249031,14.8516722 C30.249031,22.0998213 24.2713178,27.993107 16.9193314,27.993107 L16.9193314,27.993107 Z" fill="#00C9FF"></path>
                <path d="M15.5675872,23.3362267 C10.0479651,23.3362267 5.55717054,18.9088588 5.55717054,13.4671943 C5.55717054,8.02552974 10.0479651,3.59816186 15.5675872,3.59816186 C21.0872093,3.59816186 25.5780039,8.02552974 25.5780039,13.4671943 C25.5780039,18.9088588 21.0872093,23.3362267 15.5675872,23.3362267 Z M15.5675872,3.79805974 C10.1606105,3.79805974 5.75993217,8.13658412 5.75993217,13.4671943 C5.75993217,18.7978044 10.1606105,23.1363288 15.5675872,23.1363288 C20.974564,23.1363288 25.3752422,18.7978044 25.3752422,13.4671943 C25.3752422,8.13658412 20.974564,3.79805974 15.5675872,3.79805974 Z" fill="#404040"></path>
            </g>
        </g>
    </g>
</svg>