<svg xmlns="http://www.w3.org/2000/svg" width="352" height="211" viewBox="0 0 352 211"><defs><linearGradient id="a" x1="50.004%" x2="50.004%" y1="99.974%" y2="0%"><stop offset="0%" stop-color="#fff" stop-opacity="0"/><stop offset="9%" stop-color="#f7faff" stop-opacity=".05"/><stop offset="25%" stop-color="#e2ecff" stop-opacity=".18"/><stop offset="47%" stop-color="#99e9ff" stop-opacity=".343"/><stop offset="73%" stop-color="#5fddff" stop-opacity=".539"/><stop offset="100%" stop-color="#00c9ff" stop-opacity=".731"/></linearGradient><linearGradient id="b" x1="-3370.739%" x2="-3370.739%" y1="1229.925%" y2="1231.372%"><stop offset="23%" stop-color="#d2ebff" stop-opacity="0"/><stop offset="29%" stop-color="#cbe6ff" stop-opacity=".07"/><stop offset="55%" stop-color="#aed3ff" stop-opacity=".38"/><stop offset="76%" stop-color="#99c5ff" stop-opacity=".61"/><stop offset="92%" stop-color="#8cbcff" stop-opacity=".75"/><stop offset="100%" stop-color="#88b9ff" stop-opacity=".8"/></linearGradient><linearGradient id="c" x1="16.295%" x2="16.295%" y1="129.06%" y2="32.132%"><stop offset="0%" stop-color="#f6fdff"/><stop offset="60.162%" stop-color="#e8faff"/><stop offset="100%" stop-color="#b3efff"/></linearGradient><linearGradient id="d" x1="2.443%" x2="61.943%" y1="-20.325%" y2="80.596%"><stop offset="0%" stop-color="#dff8ff"/><stop offset="60.162%" stop-color="#b1eeff"/><stop offset="100%" stop-color="#5cddff"/></linearGradient><linearGradient id="e" x1="-32.169%" x2="64.759%" y1="80.596%" y2="80.596%"><stop offset="0%" stop-color="#dff8ff"/><stop offset="60.162%" stop-color="#b1eeff"/><stop offset="100%" stop-color="#5cddff"/></linearGradient><linearGradient id="f" x1="-32.169%" x2="64.759%" y1="80.596%" y2="80.596%"><stop offset="0%" stop-color="#dff8ff"/><stop offset="60.162%" stop-color="#b1eeff"/><stop offset="100%" stop-color="#5cddff"/></linearGradient><linearGradient id="g" x1="-32.169%" x2="64.759%" y1="80.596%" y2="80.596%"><stop offset="0%" stop-color="#dff8ff"/><stop offset="60.162%" stop-color="#b1eeff"/><stop offset="100%" stop-color="#5cddff"/></linearGradient><linearGradient id="h" x1="16.295%" x2="16.295%" y1="0%" y2="100%"><stop offset="0%" stop-color="#dff8ff"/><stop offset="27.909%" stop-color="#a0ebff"/><stop offset="100%" stop-color="#54d8fb"/></linearGradient><linearGradient id="i" x1="16.295%" x2="16.295%" y1="129.06%" y2="32.132%"><stop offset="0%" stop-color="#dff8ff"/><stop offset="18.226%" stop-color="#b1eeff"/><stop offset="100%" stop-color="#5cddff"/></linearGradient><linearGradient id="j" x1="16.295%" x2="16.295%" y1="129.06%" y2="32.132%"><stop offset="0%" stop-color="#dff8ff"/><stop offset="18.226%" stop-color="#b1eeff"/><stop offset="100%" stop-color="#5cddff"/></linearGradient><linearGradient id="k" x1="92.403%" x2="40.568%" y1="50.069%" y2="50.069%"><stop offset="0%" stop-color="#effcff"/><stop offset="29%" stop-color="#b2efff"/><stop offset="88%" stop-color="#68ddfd"/><stop offset="100%" stop-color="#4ad9ff"/></linearGradient><linearGradient id="l" x1="92.403%" x2="40.568%" y1="50.069%" y2="50.069%"><stop offset="0%" stop-color="#effcff"/><stop offset="29%" stop-color="#b2efff"/><stop offset="88%" stop-color="#68ddfd"/><stop offset="100%" stop-color="#4ad9ff"/></linearGradient></defs><g fill="none" fill-rule="evenodd"><path fill="url(#a)" d="M171.147 118c49.661 0 94.397 4.04 125.651 10.52 30.577.205 55.202 9.351 55.202 20.61 0 8.92-15.473 16.529-37.102 19.4-5.172 1.517-10.98 2.973-17.361 4.306q.246 1.292.246 2.584c0 19.646-42.746 35.58-95.485 35.58-47.445 0-86.805-12.899-94.233-29.797C44.757 176.404 0 164.572 0 150.75 0 132.663 76.626 118 171.147 118"/><path fill="url(#b)" d="M106.521 20.51h-5.687C100.834 9.182 91.602 0 80.227 0S59.621 9.182 59.621 20.51h-4.142C50.245 20.51 46 25.09 46 30.755S50.245 41 55.479 41h51.042c5.234 0 9.479-4.58 9.479-10.245s-4.245-10.245-9.479-10.245"/><path fill="url(#c)" fill-rule="nonzero" d="M326 75.557c0 4.693-4.312 8.443-9.774 8.443H286c-5.462-.377-10-3.939-10-8.82 0-3.184 2.053-5.991 4.99-7.5-.226-.565-.452-1.131-.452-1.697 0-3.184 2.957-5.991 6.817-5.991 1.581 0 2.957.565 4.086 1.32 2.731-4.316 7.721-7.312 13.635-7.312 8.172 0 14.764 5.824 14.764 12.947v.754c3.634 1.32 6.14 4.316 6.14 7.877z"/><g fill-rule="nonzero" transform="translate(75 64)"><g transform="translate(34.054)"><path fill="url(#d)" d="M37.38 41.564c-.041.844.245 1.811.716 2.531.45 0 .798-.39 1.064-.761.86-1.235 1.31-2.737 1.432-4.218.123-1.482-.041-3.004-.348-4.486-1.718 1.976-2.741 4.321-2.864 6.934m-4.808-1.749c-.43-.473-.675-1.09-.819-1.707-.613-2.758.696-5.824 3.09-7.284 1.084 3.25.225 6.666-2.292 8.991zm2.25 4.527c-1.207-1.749-2.905-3.086-5.012-3.292-2.108-.206-3.949.494-5.647 1.728 1.105.68 2.332 1.091 3.56 1.482 1.166.39 2.353.782 3.58.885 1.228.103 2.517-.103 3.52-.803M25.718 33.89c-.553-1.913-.287-4.177 1.043-5.7 1.146-1.316 2.844-1.933 4.48-2.489-.183 3.395-2.618 6.4-5.523 8.19m1.248 3.025c-1.003-.74-.798-1.852-4.645-1.687-1.882.33-4.091 1.111-4.93 1.77.839.576 3.723 1.234 4.93 1.378 1.678.103 3.786-.679 4.645-1.481zm-.634-16.646c.306 1.214.122 2.18-.307 3.354-.819 2.201-2.578 3.93-4.624 5.082-.982-2.325.92-5.782 1.33-6.235.982-1.049 2.148-2.18 3.6-2.201m-3.908 11.358c-1.33-1.379-2.005-2.12-4.665-2.263-1.37.205-2.844.04-4.399 1.131 1.657 1.276 4.624 1.626 5.75 1.708 1.125.103 2.29-.062 3.314-.597zm-1.044-17.49c.225 2.737-.593 4.321-1.166 5.124-1.944 2.921-3.376 2.921-4.317 3.107-.184-1.75.287-3.58 1.269-5.062 1.002-1.482 2.516-2.634 4.194-3.169zM16.86 24.445c-.982-1.296-2.435-1.626-4.051-1.605-1.617 0-3.172.638-4.522 1.523a1.26 1.26 0 0 0-.511.617c1.432.885 3.048 1.543 4.726 1.564 1.678 0 3.417-.7 4.337-2.1zM2.823 17.222s1.187.597 2.537 1.173l.164.062.164.062c.982.411 1.984.782 2.64.946 1.656.412 2.823.453 4.255-.473-1.146-1.09-2.128-2.099-3.642-2.49-1.964-.514-4.03.041-5.995.618-.061 0-.123.04-.123.082zm9.248.124c1.596-.967 2.865-2.078 3.417-3.868s.47-2.86 0-4.671c-.573 0-1.064.39-1.473.802-1.964 1.996-2.742 5.062-1.964 7.737zm-10.864-5.72c2.25 1.872 5.381 2.613 8.184 1.975-1.125-1.111-2.312-2.078-3.826-2.53-1.514-.454-3.192-.412-4.542.328-.102.062.102.144.184.227m7.57-3.786c-.43 1.563-.266 3.374.716 4.65 1.473-.782 2.149-2.14 2.537-3.766.143-.555-.04-3.93-.757-5.061C10.19 4.877 9.207 6.255 8.777 7.84M.02 5.967c2.394 3.436 4.277 3.169 6.834 3.066-.061-.103-.102-.206-.164-.33l-.06-.123c-.389-.823-.86-1.625-2.107-2.49C3.048 5.083.757 5.125 0 5.968zm5.811-3.004c-.593 2.634-.061 3.992.43 4.568 1.268-.576 2.005-2.696 2.046-3.663C8.532 2.675 8.143.597 7.959 0 7.018.432 6.302 1.4 5.83 2.963"/><path fill="url(#e)" d="M45.911 48.293c-14.894-8.54-28.316-22.449-40.244-41.77 4.87 12.428 22.26 36.626 39.344 44.424.737-.576 1.044-1.46.9-2.634z"/></g><g transform="translate(0 25.844)"><path fill="url(#f)" d="M26.239 0c.286 11.194 1.452 18.519 3.478 21.934.43-.493.9-.967 1.452-1.46l-.797 2.407c9.002 16.708 19.927 28.642 32.755 35.782 5.177 2.038 21.77 11.647 15.038-9.053-4.5-13.807-13.83-26.091-28.03-36.873l-3.212-.185 1.555-1.708a35 35 0 0 0-8.04-7.243c-.43.494-1.085.946-1.964 1.4l.306-2.738L26.24.021z"/><path fill="url(#g)" d="M19.773 47.717c-5.646 2.983-8.654 1.81-9.043-3.498-.593-7.963-1.493-8.066-7.16-9.712-5.668-1.626-3.867-7.037.409-6.852 2.843.123 6.629 1.029 11.314 2.716 4.235 1.667 6.097 1.09 5.606-1.687-.737-4.177-4.113-7.696.409-6.729 4.501.967 10.66 9.815 11.764 14.321.737 3.004 2.353 3.663 4.87 1.955l.511-8.498c1.105-5.72 3.806-2.737 8.143 9.012 3.58 6.07 5.79 7.45 6.65 4.116 3.969-6.626 10.986-1.44 21.011 15.556 10.026 16.996.9 21.05-27.395 12.16-2.066-3.477-4.951-5.39-8.634-5.761-5.524-.556-11.273-1.297-10.578-9.218q.675-7.933-7.856-7.902z"/></g></g><g transform="translate(145 36)"><path fill="#00c9ff" fill-rule="nonzero" d="M80.554 48.847H11.24L.907 93.503h90.186zM58.632 60.088H33.327c-1.464 0-2.66-1.192-2.66-2.692s1.196-2.65 2.66-2.65h25.305a2.66 2.66 0 0 1 2.66 2.65c0 1.46-1.196 2.692-2.66 2.692"/><path fill="url(#h)" fill-rule="nonzero" d="M0 75.645 2.908 133h86.184L92 75.645zm61.87 13.933H30.11c-1.464 0-2.66-1.192-2.66-2.692s1.196-2.651 2.66-2.651h31.76a2.66 2.66 0 0 1 2.66 2.65c0 1.46-1.196 2.693-2.66 2.693"/><path fill="#eef1f8" d="m45.99 120.259-8.023 4.213c-.515.267-1.175.082-1.443-.452-.103-.206-.145-.452-.103-.679l1.526-8.918-6.497-6.31c-.433-.41-.433-1.088 0-1.52.165-.164.392-.288.619-.308l8.971-1.295 4.022-8.117c.268-.534.907-.74 1.443-.493.206.103.392.267.495.493l4.022 8.117 8.97 1.295c.599.082.99.637.908 1.212a1.17 1.17 0 0 1-.31.617l-6.495 6.309 1.526 8.918a1.07 1.07 0 0 1-.887 1.233 1.1 1.1 0 0 1-.68-.102l-8.023-4.213z"/><path fill="url(#i)" fill-rule="nonzero" d="m11.178 48.827.64 26.818H0z"/><path fill="url(#j)" fill-rule="nonzero" d="m80.802 48.827-.66 26.818h11.837z"/><path fill="#00c9ff" fill-rule="nonzero" d="m71.232 14.344 5.404 5.795L89.4 0 60.86 3.37l4.702 5.405 20.128-6.74-17.88 9.309-2.846 6.041z"/></g><g fill-rule="nonzero" transform="translate(252 139)"><path fill="url(#k)" d="M43.327 12.4c-.041.144-.082.267-.123.43l-.102.41c-.04.144-.04.247-.04.329 0 .471.122.881.387 1.23.245.348.571.614.98.778.142 0 .306.021.469.021.143 0 .286.02.449.02h.47l3.938.041v4.182c0 .615 0 1.23-.04 1.865-.021.615-.062 1.189-.082 1.68q-.062.892-.123 1.722h3.633l-.082-.983c0-.39-.04-.902-.04-1.558S53 21.03 53 19.923V16.09c.286.246.612.369.96.369.285 0 .53-.062.734-.205.204-.144.388-.308.51-.554l2.857-.143c.551-.144 1.02-.41 1.388-.84S60 13.794 60 13.2c0-.103 0-.185-.02-.267a.6.6 0 0 0-.082-.246l-.633-1.455a2.9 2.9 0 0 0-.306-1.025 3.3 3.3 0 0 0-.673-.82l-3.96-7.276h-.02c-.326-.574-.694-1.086-1.143-1.496-.428-.41-1-.615-1.694-.615-.612 0-1.142.164-1.632.471-.47.308-.837.738-1.061 1.25l-3.184 6.17a3 3 0 0 0-1.408 1.046q-.552.737-.551 1.721c0 .267.04.554.122.84l-.428.841z"/><path fill="url(#l)" d="M.429 32.508c-.041.205-.123.43-.184.656l-.163.614A1.7 1.7 0 0 0 0 34.27c0 .718.184 1.353.571 1.886a3.4 3.4 0 0 0 1.51 1.21c.225.02.47.04.735.04.204.02.429.041.694.041h.735l6.02.082v6.395c0 .943 0 1.886-.06 2.85a73 73 0 0 1-.144 2.582A412 412 0 0 1 9.878 52h5.55l-.122-1.496c-.02-.595-.061-1.374-.082-2.398-.02-1.005-.04-2.357-.04-4.038v-5.842c.428.39.918.574 1.47.574a2.1 2.1 0 0 0 1.142-.307c.326-.205.592-.492.796-.84l4.347-.226a4.05 4.05 0 0 0 2.122-1.27c.572-.657.857-1.415.857-2.317 0-.144 0-.287-.04-.43a1.7 1.7 0 0 0-.123-.39l-.96-2.214c-.06-.553-.203-1.086-.489-1.557a4.7 4.7 0 0 0-1.02-1.271l-6.041-11.13h-.04c-.49-.902-1.062-1.66-1.736-2.295-.673-.636-1.53-.964-2.571-.964-.918 0-1.755.246-2.49.718-.735.492-1.286 1.127-1.632 1.906l-4.858 9.449a4.53 4.53 0 0 0-2.163 1.599q-.857 1.137-.857 2.644 0 .615.184 1.29l-.653 1.292z"/></g></g></svg>