<?xml version="1.0" encoding="UTF-8"?>
<svg width="178px" height="165px" viewBox="0 0 178 165" version="1.1" xmlns="http://www.w3.org/2000/svg" xmlns:xlink="http://www.w3.org/1999/xlink">
    <title>编组 2</title>
    <defs>
        <path d="M85.3981415,3.38617745 L85.3981415,5.38640822 C85.3998197,9.12457213 82.3957975,12.1553786 78.6902774,12.1553786 L78.6902774,12.1553786 L41.9556172,12.1553786 L41.6199723,12.1469174 C38.0688488,11.9726164 35.2427184,9.01288412 35.2427184,5.38640822 L35.2427184,5.38640822 L35.2427184,3.38448521 C35.2427184,1.51624938 33.7407074,0 31.8862691,0 L31.8862691,0 L0,0.00169224261 L0,37.2310296 C0,40.9691935 3.00570042,44 6.71289875,44 L6.71289875,44 L114.287101,44 C117.9943,44 121,40.9691935 121,37.2310296 L121,37.2310296 L121,0.00169224261 L88.7562691,0 C86.9018308,0 85.3981415,1.51794162 85.3981415,3.38617745 L85.3981415,3.38617745 Z" id="path-1"></path>
        <path d="M0,20 C0,23.9183333 1.41,27.5733333 3.84166667,30.6583333 L3.84166667,30.6583333 C4.195,31.105 4.31666667,31.69 4.13666667,32.23 L4.13666667,32.23 L1.905,38.8766667 L9.14833333,36.195 C9.60833333,36.025 10.115,36.075 10.5433333,36.3183333 L10.5433333,36.3183333 C14.625,38.6366667 19.6133333,40 25,40 L25,40 C38.8066667,40 50,31.0466667 50,20 L50,20 C50,8.95333333 38.8066667,0 25,0 L25,0 C11.1933333,0 0,8.95333333 0,20 L0,20 Z" id="path-3"></path>
    </defs>
    <g id="首页-搜索-公司详情（个股）" stroke="none" stroke-width="1" fill="none" fill-rule="evenodd">
        <g id="公司详情-ESG指标缺省图" transform="translate(-1021, -1383)">
            <g id="编组-2" transform="translate(1021, 1383)">
                <ellipse id="椭圆形" fill="#F6F6F8" cx="75" cy="150" rx="75" ry="15"></ellipse>
                <polygon id="矩形" fill="#AEB8C3" points="37.8591549 81 111.140845 81 135 110 14 110"></polygon>
                <rect id="矩形" fill="#F5F5F7" x="33" y="33" width="84" height="91" rx="2"></rect>
                <rect id="矩形" fill="#DEDEE7" x="44" y="43" width="61" height="34" rx="2"></rect>
                <rect id="矩形备份" fill="#DEDEE7" x="44" y="87" width="61" height="5" rx="1.71061198"></rect>
                <rect id="矩形备份-2" fill="#DEDEE7" x="44" y="101" width="61" height="5" rx="1.71061198"></rect>
                <g id="编组" transform="translate(14, 110)">
                    <mask id="mask-2" fill="white">
                        <use xlink:href="#path-1"></use>
                    </mask>
                    <g id="Clip-2"></g>
                    <polygon id="Fill-1" fill="#DCE0E8" mask="url(#mask-2)" points="-8.39112344 52.461213 129.391123 52.461213 129.391123 -8.45952079 -8.39112344 -8.45952079"></polygon>
                </g>
                <g id="编组" transform="translate(128, 0)">
                    <mask id="mask-4" fill="white">
                        <use xlink:href="#path-3"></use>
                    </mask>
                    <g id="Clip-2"></g>
                    <polygon id="Fill-1" fill="#DCE0E8" mask="url(#mask-4)" points="-8.33333333 48.3333333 58.3333333 48.3333333 58.3333333 -8.33333333 -8.33333333 -8.33333333"></polygon>
                    <rect id="矩形" fill="#FFFFFF" mask="url(#mask-4)" x="-35" y="13.3333333" width="6.66666667" height="6.66666667"></rect>
                </g>
                <circle id="椭圆形" fill="#FFFFFF" cx="162.5" cy="20.5" r="3.5"></circle>
                <circle id="椭圆形备份-4" fill="#FFFFFF" cx="153.5" cy="20.5" r="3.5"></circle>
                <circle id="椭圆形备份-27" fill="#FFFFFF" cx="144.5" cy="20.5" r="3.5"></circle>
            </g>
        </g>
    </g>
</svg>