<?xml version="1.0" encoding="UTF-8"?>
<svg width="40px" height="40px" viewBox="0 0 40 40" version="1.1" xmlns="http://www.w3.org/2000/svg" xmlns:xlink="http://www.w3.org/1999/xlink">
    <title>编组 11</title>
    <g id="用户与权限设置" stroke="none" stroke-width="1" fill="none" fill-rule="evenodd">
        <g id="人员管理-新增人员弹窗" transform="translate(-710, -374)">
            <g id="编组-11" transform="translate(710, 374)">
                <circle id="椭圆形" fill="#00C9FF" cx="20" cy="20" r="20"></circle>
                <g id="tishi" transform="translate(10, 10)" fill="#FFFFFF" fill-rule="nonzero">
                    <path d="M2.72394854,3.05717957 C2.46348582,3.31746024 2.46348582,3.73955809 2.72394854,4.00004682 L3.66660772,4.94270601 C3.92699242,5.20309071 4.34890823,5.20309071 4.60937095,4.94270601 C4.86965163,4.68242534 4.86965163,4.26043152 4.60937095,4.00004682 L3.66660772,3.05717957 C3.40624903,2.79679488 2.98402114,2.79679488 2.72394854,3.05717957 Z M15.390499,4.00004682 C15.1302184,4.26043152 15.1302184,4.68242534 15.390499,4.94270601 C15.6505716,5.20309071 16.0727735,5.20309071 16.3332623,4.94270601 L17.2758174,4.00004682 C17.5363061,3.7395581 17.5363061,3.31756427 17.2758174,3.05717957 C17.0155627,2.7968989 16.593647,2.7968989 16.3332623,3.05717957 L15.390499,4.00004682 Z M0.666748159,8.33329867 C0.298563352,8.33329867 0,8.63178399 0,8.99983876 C0,9.36810157 0.298485343,9.66658692 0.666748159,9.66658692 L2.00001041,9.66658692 C2.3681952,9.66658692 2.66665455,9.36810157 2.66665455,8.99983876 C2.66665455,8.63178399 2.3681952,8.33329867 2.00001039,8.33329867 L0.666748159,8.33329867 Z M17.9998596,8.33329867 C17.6317008,8.33329867 17.3331114,8.63178401 17.3331114,8.99983876 C17.3331114,9.36810157 17.6316748,9.66658692 17.9998596,9.66658692 L19.3331478,9.66658692 C19.7013066,9.66658692 20,9.36810157 20,8.99983876 C20,8.63178399 19.7013066,8.33329867 19.3331478,8.33329867 L17.9998596,8.33329867 Z M9.33325184,1.99993239 C9.33325184,2.3681952 9.63173718,2.66655051 9.99989598,2.66655051 C10.3679507,2.66655051 10.6666441,2.3681952 10.6666441,1.99993239 L10.6666441,0.666644135 C10.6666441,0.298485343 10.3679507,0 9.99989598,0 C9.63173718,0 9.33325184,0.298485343 9.33325184,0.666644135 L9.33325184,1.99993239 Z M9.99989598,5.33330906 C12.5772676,5.33330906 14.6665869,7.4226284 14.6665869,9.99989598 C14.6665869,12.5772676 12.5772676,14.6666649 9.99989598,14.6666649 C7.42252437,14.6666649 5.33330906,12.5772416 5.33330906,9.99989598 C5.33330906,7.4226284 7.42252437,5.33330906 9.99989598,5.33330906 Z M9.99989596,16.0001612 C13.3136892,16.0001612 15.9998492,13.3138972 15.9998492,9.99989598 C15.9998492,6.68610276 13.3136892,4.00004682 9.99989596,4.00004682 C6.68610274,4.00004682 4.0000468,6.68610276 4.0000468,9.99989598 C4.0000468,13.3138973 6.68610274,16.0001612 9.99989596,16.0001612 Z M9.33325186,20.000104 L10.6666441,20.000104 C11.0348029,20.000104 11.3332883,19.7013326 11.3332883,19.3333559 C11.3332883,18.964989 11.0348029,18.6667117 10.6666441,18.6667117 L9.33325186,18.6667117 C8.96509305,18.6667117 8.66660772,18.964989 8.66660772,19.3333559 C8.66660772,19.7013066 8.96509307,20.000104 9.33325186,20.000104 Z M7.99988556,18.0000676 L11.9999064,18.0000676 C12.3680652,18.0000676 12.6665505,17.7012962 12.6665505,17.3334235 C12.6665505,16.9649526 12.3680652,16.6665713 11.9999064,16.6665713 L7.99988556,16.6665713 C7.63170077,16.6665973 7.33334547,16.9649526 7.33334547,17.3334235 C7.33334547,17.7012962 7.6318048,18.0000676 7.99988556,18.0000676 Z" id="形状"></path>
                </g>
            </g>
        </g>
    </g>
</svg>