<?xml version="1.0" encoding="UTF-8"?>
<svg width="19px" height="21px" viewBox="0 0 19 21" version="1.1" xmlns="http://www.w3.org/2000/svg" xmlns:xlink="http://www.w3.org/1999/xlink">
    <title>shanchu</title>
    <g id="指标配置" stroke="none" stroke-width="1" fill="none" fill-rule="evenodd">
        <g id="指标库-人员管理" transform="translate(-686, -320)" fill="#999999" fill-rule="nonzero">
            <g id="shanchu" transform="translate(686, 320)">
                <path d="M1.7888889,4.0888889 L0.766666667,4.0888889 C0.343248358,4.0888889 0,3.74564054 0,3.32222223 C0,2.89880392 0.343248358,2.55555556 0.766666667,2.55555556 L17.6333333,2.55555556 C18.0567516,2.55555556 18.4,2.89880392 18.4,3.32222223 C18.4,3.74564054 18.0567516,4.0888889 17.6333333,4.0888889 L3.32222223,4.0888889 L3.32222223,17.6333333 C3.32222222,17.9722211 3.45684485,18.2972289 3.69647467,18.5368587 C3.93610448,18.7764885 4.26111226,18.9111111 4.6,18.9111111 L13.8,18.9111111 C14.1388877,18.9111111 14.4638955,18.7764885 14.7035253,18.5368587 C14.9431552,18.2972289 15.0777778,17.9722211 15.0777778,17.6333333 L15.0777778,6.3888889 C15.0777778,5.96547059 15.4210261,5.62222223 15.8444444,5.62222223 C16.2678627,5.62222223 16.6111111,5.96547059 16.6111111,6.3888889 L16.6111111,17.6333333 C16.6111111,19.1858333 15.3525,20.4444445 13.8,20.4444445 L4.6,20.4444445 C3.0475,20.4444445 1.7888889,19.1858334 1.7888889,17.6333333 L1.7888889,4.0888889 Z M7.15555556,1.53333333 C6.73213726,1.53333333 6.3888889,1.19008497 6.3888889,0.766666667 C6.3888889,0.343248358 6.73213726,0 7.15555556,0 L11.2444444,0 C11.6678627,0 12.0111111,0.343248358 12.0111111,0.766666667 C12.0111111,1.19008497 11.6678627,1.53333333 11.2444444,1.53333333 L7.15555556,1.53333333 L7.15555556,1.53333333 Z M6.3888889,8.43333333 C6.3888889,8.00991503 6.73213726,7.66666667 7.15555556,7.66666667 C7.57897387,7.66666667 7.92222223,8.00991503 7.92222223,8.43333333 L7.92222223,14.5666667 C7.92222223,14.990085 7.57897387,15.3333333 7.15555556,15.3333333 C6.73213726,15.3333333 6.3888889,14.990085 6.3888889,14.5666667 L6.3888889,8.43333333 Z M10.4777778,8.43333333 C10.4777778,8.00991503 10.8210261,7.66666667 11.2444444,7.66666667 C11.6678627,7.66666667 12.0111111,8.00991503 12.0111111,8.43333333 L12.0111111,14.5666667 C12.0111111,14.990085 11.6678627,15.3333333 11.2444444,15.3333333 C10.8210261,15.3333333 10.4777778,14.990085 10.4777778,14.5666667 L10.4777778,8.43333333 Z" id="形状"></path>
            </g>
        </g>
    </g>
</svg>