<?xml version="1.0" encoding="UTF-8"?>
<svg width="18px" height="18px" viewBox="0 0 18 18" version="1.1" xmlns="http://www.w3.org/2000/svg" xmlns:xlink="http://www.w3.org/1999/xlink">
    <title>tishi_</title>
    <g id="页面-1" stroke="none" stroke-width="1" fill="none" fill-rule="evenodd">
        <g id="任务管理--二次确认弹窗" transform="translate(-721, -599)" fill="#00C9FF" fill-rule="nonzero">
            <g id="tishi_" transform="translate(721, 599)">
                <path d="M17.9997708,9.11261315 C17.9997708,13.9725513 13.9700721,18 8.88738685,18 C4.02744873,18 0,13.9703013 0,9.11261315 C0,4.02992787 4.02969869,0.000229174931 8.88738685,0.000229174931 C11.3093811,-0.0169969659 13.6371738,0.937522363 15.3498257,2.65017426 C17.0624776,4.36282616 18.016997,6.69061886 17.9997708,9.11261315 Z M8.99988541,4.57442093 C8.81031509,4.57135034 8.62797463,4.64710256 8.49638565,4.78359679 C8.36479668,4.92009103 8.2957657,5.10508068 8.30576926,5.29441177 L8.49251687,10.3568473 C8.51095523,10.756183 8.83752672,11.0719017 9.23725739,11.0768382 L8.76026347,11.0768382 C9.16483905,11.0769712 9.49575526,10.75454 9.50612897,10.3500974 L9.69287658,5.28766186 C9.69931694,5.10022099 9.62901054,4.91826515 9.4982088,4.78385361 C9.36740706,4.64944208 9.18743213,4.57420948 8.99988541,4.57554592 L8.99988541,4.57442093 Z M8.99988541,13.4258082 C9.39752537,13.4258082 9.71987625,13.1034574 9.71987625,12.7058174 C9.71987625,12.3081774 9.39752537,11.9858266 8.99988541,11.9858266 C8.60224545,11.9858266 8.27989458,12.3081774 8.27989458,12.7058174 C8.27989458,13.1034574 8.60224545,13.4258082 8.99988541,13.4258082 L8.99988541,13.4258082 Z" id="形状"></path>
            </g>
        </g>
    </g>
</svg>